<svg xmlns="http://www.w3.org/2000/svg" viewBox="0 0 1024 1024">
  <defs>
    <linearGradient id="bg" x1="158" x2="866" y1="120" y2="904" gradientUnits="userSpaceOnUse">
      <stop offset="0" stop-color="#142126"/>
      <stop offset="1" stop-color="#0A1114"/>
    </linearGradient>
    <linearGradient id="teal" x1="250" x2="790" y1="260" y2="780" gradientUnits="userSpaceOnUse">
      <stop offset="0" stop-color="#4CE6D4"/>
      <stop offset="1" stop-color="#0FA3A5"/>
    </linearGradient>
    <filter id="softShadow" x="-20%" y="-20%" width="140%" height="140%">
      <feDropShadow dx="0" dy="20" stdDeviation="24" flood-color="#000000" flood-opacity="0.32"/>
    </filter>
  </defs>

  <rect width="1024" height="1024" rx="224" fill="url(#bg)"/>
  <circle cx="512" cy="512" r="384" fill="#183239" opacity="0.5"/>
  <circle cx="512" cy="512" r="310" fill="none" stroke="#234B52" stroke-width="8" opacity="0.55"/>

  <g filter="url(#softShadow)">
    <!-- Speaking person -->
    <circle cx="334" cy="340" r="98" fill="#F6FAF8"/>
    <path d="M212 628c0-96 72-174 164-174h34c84 0 151 68 151 151v60c0 28-23 51-51 51H263c-28 0-51-23-51-51v-37Z" fill="#F6FAF8"/>
    <path d="M403 312c52 22 83 66 83 118 0 64-42 110-104 122-17 3-28 20-23 37l26 91c4 16-8 31-24 31H245c-25 0-45-20-45-45v-44c0-45 20-88 54-117l47-40c-40-19-66-60-66-107 0-65 52-118 117-118 18 0 35 4 51 11v61Z" fill="#EAF1EF"/>
    <path d="M396 328c30 20 49 53 49 91 0 59-48 107-107 107-20 0-39-5-55-15 24 30 61 49 103 49 72 0 131-59 131-131 0-55-34-101-82-121-15-6-31 11-39 20Z" fill="#CFE3DF" opacity="0.72"/>

    <!-- Sound waves -->
    <path d="M548 382c54 50 54 210 0 260" fill="none" stroke="url(#teal)" stroke-width="34" stroke-linecap="round"/>
    <path d="M618 322c92 90 92 382 0 472" fill="none" stroke="url(#teal)" stroke-width="34" stroke-linecap="round" opacity="0.86"/>
    <path d="M690 260c132 132 132 504 0 636" fill="none" stroke="url(#teal)" stroke-width="30" stroke-linecap="round" opacity="0.62"/>

    <!-- Microphone -->
    <rect x="704" y="272" width="142" height="316" rx="71" fill="url(#teal)"/>
    <rect x="742" y="316" width="66" height="216" rx="33" fill="#D8FFF9" opacity="0.42"/>
    <path d="M654 508c0 73 54 132 121 132s121-59 121-132" fill="none" stroke="#F6FAF8" stroke-width="34" stroke-linecap="round"/>
    <path d="M775 642v92" stroke="#F6FAF8" stroke-width="34" stroke-linecap="round"/>
    <path d="M694 760h162" stroke="#F6FAF8" stroke-width="34" stroke-linecap="round"/>
  </g>
</svg>
